<?xml version="1.0" encoding="UTF-8" standalone="no"?>
<!-- Generated by Microsoft Visio, SVG Export network_remote_peering_basic.svg Page-1 -->

<svg
   width="1095"
   height="475.99997"
   viewBox="0 0 821.24928 357.00005"
   xml:space="preserve"
   color-interpolation-filters="sRGB"
   class="st24"
   version="1.1"
   id="svg761"
   sodipodi:docname="network_remote_peering_basic.svg"
   inkscape:version="1.2.1 (9c6d41e410, 2022-07-14)"
   xmlns:inkscape="http://www.inkscape.org/namespaces/inkscape"
   xmlns:sodipodi="http://sodipodi.sourceforge.net/DTD/sodipodi-0.dtd"
   xmlns:xlink="http://www.w3.org/1999/xlink"
   xmlns="http://www.w3.org/2000/svg"
   xmlns:svg="http://www.w3.org/2000/svg"
   xmlns:v="http://schemas.microsoft.com/visio/2003/SVGExtensions/"><sodipodi:namedview
   id="namedview763"
   pagecolor="#ffffff"
   bordercolor="#666666"
   borderopacity="1.0"
   inkscape:showpageshadow="2"
   inkscape:pageopacity="1"
   inkscape:pagecheckerboard="0"
   inkscape:deskcolor="#d1d1d1"
   inkscape:document-units="px"
   showgrid="false"
   inkscape:zoom="1"
   inkscape:cx="765"
   inkscape:cy="248"
   inkscape:window-width="1920"
   inkscape:window-height="1017"
   inkscape:window-x="1072"
   inkscape:window-y="573"
   inkscape:window-maximized="1"
   inkscape:current-layer="svg761" />
	<v:documentProperties
   v:langID="1033"
   v:viewMarkup="false" />

	<style
   type="text/css"
   id="style2">
	<![CDATA[
		.st1 {fill:#f5f4f2;stroke:#9e9892;stroke-linecap:round;stroke-linejoin:round;stroke-width:1}
		.st2 {fill:#000000;font-family:Oracle Sans;font-size:0.75em;font-weight:bold}
		.st3 {fill:none;stroke:#ae562c;stroke-dasharray:3,3;stroke-width:1}
		.st4 {fill:#ae562c;font-family:Oracle Sans;font-size:0.75em;font-weight:bold}
		.st5 {fill:#000000;font-size:0.888885em;font-weight:normal}
		.st6 {fill:#ffffff;stroke:none;stroke-linecap:butt;stroke-width:14.069}
		.st7 {fill:#bb501c;stroke:none;stroke-linecap:butt;stroke-width:14.069}
		.st8 {fill:none;stroke:none;stroke-width:0.25}
		.st9 {fill:#312d2a;font-family:Oracle Sans;font-size:0.666664em}
		.st10 {font-size:1em}
		.st11 {fill:#ffffff;stroke:none;stroke-linecap:butt;stroke-width:14.5714}
		.st12 {fill:#bb501c;stroke:none;stroke-linecap:butt;stroke-width:14.5714}
		.st13 {fill:#ffffff;stroke:none;stroke-linecap:butt;stroke-width:18.7678}
		.st14 {fill:none;stroke:none;stroke-linecap:butt;stroke-width:18.7678}
		.st15 {fill:#bb501c;stroke:none;stroke-linecap:butt;stroke-width:18.7678}
		.st16 {fill:#f5f4f2;stroke:none;stroke-linecap:round;stroke-linejoin:round;stroke-width:1}
		.st17 {fill:#2c5967;stroke:none;stroke-linecap:butt;stroke-width:14.5714}
		.st18 {fill:#312d2a;font-family:Oracle Sans Tab;font-size:0.666664em}
		.st19 {marker-end:url(#mrkr3-240);marker-start:url(#mrkr3-238);stroke:#000000;stroke-linecap:round;stroke-linejoin:round;stroke-width:1}
		.st20 {fill:#000000;fill-opacity:1;stroke:#000000;stroke-opacity:1;stroke-width:0.28409090909091}
		.st21 {fill:#ffffff;stroke:none;stroke-linecap:butt;stroke-width:7.2}
		.st22 {fill:#000000;font-family:Oracle Sans;font-size:0.666664em}
		.st23 {fill:#7a736e;stroke:#f5f4f2;stroke-linecap:round;stroke-linejoin:round;stroke-width:1.5}
		.st24 {fill:none;fill-rule:evenodd;font-size:12px;overflow:visible;stroke-linecap:square;stroke-miterlimit:3}
	]]>
	</style>

	<defs
   id="Markers">
		<g
   id="lend3">
			<path
   d="M 2,1 0,0 2,-1"
   style="fill:none;stroke-linecap:round;stroke-linejoin:round"
   id="path4" />
		</g>
		<marker
   id="mrkr3-238"
   class="st20"
   v:arrowType="3"
   v:arrowSize="2"
   orient="auto"
   markerUnits="strokeWidth"
   overflow="visible">
			<use
   xlink:href="#lend3"
   transform="scale(3.52)"
   id="use7" />
		</marker>
		<marker
   id="mrkr3-240"
   class="st20"
   v:arrowType="3"
   v:arrowSize="2"
   orient="auto"
   markerUnits="strokeWidth"
   overflow="visible">
			<use
   xlink:href="#lend3"
   transform="scale(-3.52)"
   id="use10" />
		</marker>
	
		
		
		
		
		
		
		
		
		
		
		
		
		
		
		
		
		
		
	
			
			
			
		
			
			
			
			
			
					
			
			
			
		
			
			
		
			
			
			
			
			
					
			
			
			
		
			
			
			
			
			
					
			
			
			
			
			
					
			
			
			
			
			
					
			
			
			
		
			
			
			
		
			
			
			
		
			
			
			
		
			
			
			
		
				
				
				
				
				
				
							
				
				
				
				
			
				
				
				
			
				
				
			
				
				
				
				
				
							
				
				
			
				
				
				
			
				
				
				
			
				
				
			
				
				
				
			
				
				
				
			
				
				
			
				
				
				
			
				
				
				
			
				
				
			
				
				
				
			</defs><rect
   style="fill:#fcfbfa;stroke-width:1.65554;stroke-miterlimit:3"
   id="rect2145"
   width="821.25018"
   height="357.00006"
   x="-0.00043795747"
   y="0" />
	<g
   id="g13736"
   transform="matrix(1.5949303,0,0,1.5949303,7.5332278,10.337873)"><path
     d="m 295.03239,9.8442935 c 0,-1.91 0.35,-3.57 0.76,-3.57 h 202.01 c 0.41,0 0.74,1.66 0.74,3.57 V 201.78429 c 0,1.91 -0.33,3.49 -0.74,3.49 h -202.01 c -0.41,0 -0.76,-1.58 -0.76,-3.49 z"
     class="st1"
     id="path20" /><text
     x="369.47238"
     y="18.374294"
     class="st2"
     v:langID="1033"
     id="text22"><v:paragraph
   v:horizAlign="1" /><v:tabList />OCI Region 2</text><path
     d="m 7.5323913,9.3442935 c 0,-1.91 0.34,-3.57 0.72,-3.57 H 201.51239 c 0.39,0 0.71,1.66 0.71,3.57 V 201.28429 c 0,1.91 -0.32,3.49 -0.71,3.49 H 8.2523913 c -0.38,0 -0.72,-1.58 -0.72,-3.49 z"
     class="st1"
     id="path29" /><text
     x="78.072395"
     y="17.874294"
     class="st2"
     v:langID="1033"
     id="text31"><v:paragraph
   v:horizAlign="1" /><v:tabList />OCI Region 1</text><path
     d="m 340.09739,175.52429 h 131.34 V 28.234294 h -131.34 z"
     class="st3"
     id="path38" /><text
     x="344.09738"
     y="40.334293"
     class="st4"
     v:langID="1033"
     id="text42"><v:paragraph /><v:tabList />VCN-2<v:newlineChar /><tspan
   x="344.09738"
   dy="16.200001"
   class="st5"
   id="tspan40">192.168.0.0/16</tspan></text><g
     id="shape5-13"
     v:mID="5"
     v:groupContext="shape"
     v:layerMember="0"
     transform="translate(460.86534,-13.939655)">
					<title
   id="title49">Sheet.5</title>
					<path
   d="m 13.14,200.5 c -1.2,0 -2.27,-0.86 -2.53,-2.06 H 7.57 c -0.25,1.16 -1.28,2.06 -2.52,2.06 -1.41,0 -2.57,-1.16 -2.57,-2.57 0,-0.9 0.52,-1.75 1.29,-2.23 l -0.95,-2.86 c -0.08,0 -0.17,0 -0.25,0 -1.41,0 -2.57,-1.16 -2.57,-2.57 0,-1.41 1.16,-2.57 2.57,-2.57 0.64,0 1.24,0.22 1.71,0.69 l 2.48,-1.8 c -0.13,-0.34 -0.21,-0.68 -0.21,-1.07 0,-1.41 1.15,-2.57 2.56,-2.57 1.42,0 2.57,1.16 2.57,2.57 0,0.34 -0.08,0.73 -0.21,1.07 l 2.44,1.8 c 0.47,-0.43 1.07,-0.69 1.71,-0.69 1.41,0 2.57,1.16 2.57,2.57 0,1.41 -1.16,2.57 -2.57,2.57 -0.09,0 -0.17,0 -0.26,0 l -0.94,2.86 c 0.77,0.48 1.28,1.33 1.28,2.23 0,1.41 -1.15,2.57 -2.56,2.57 z"
   class="st6"
   id="path51" />
				</g><g
     id="shape6-15"
     v:mID="6"
     v:groupContext="shape"
     v:layerMember="0"
     transform="translate(460.65139,-13.725707)">
					<title
   id="title54">Sheet.6</title>
					<path
   d="m 9.29,182.95 c 1.28,0 2.35,1.07 2.35,2.36 0,0.38 -0.09,0.77 -0.3,1.11 l 2.74,2.01 c 0.43,-0.47 1.02,-0.73 1.71,-0.73 1.28,0 2.35,1.07 2.35,2.36 0,1.28 -1.07,2.35 -2.35,2.35 -0.13,0 -0.3,0 -0.43,-0.04 l -1.07,3.21 c 0.77,0.38 1.33,1.19 1.33,2.14 0,1.28 -1.07,2.35 -2.36,2.35 -1.19,0 -2.18,-0.9 -2.35,-2.05 H 7.53 c -0.17,1.15 -1.15,2.05 -2.35,2.05 -1.29,0 -2.36,-1.07 -2.36,-2.35 0,-0.95 0.56,-1.76 1.33,-2.14 l -0.94,-3.21 c -0.13,0.04 -0.3,0.04 -0.43,0.04 -1.28,0 -2.35,-1.07 -2.35,-2.35 0,-1.29 1.07,-2.36 2.35,-2.36 0.69,0 1.29,0.3 1.71,0.73 l 2.74,-2.01 c -0.17,-0.34 -0.3,-0.73 -0.3,-1.11 0,-1.29 1.07,-2.36 2.36,-2.36 z m 0,-0.42 c -1.55,0 -2.79,1.24 -2.79,2.78 0,0.34 0.05,0.68 0.18,0.98 l -2.19,1.58 c -0.47,-0.38 -1.11,-0.6 -1.71,-0.6 -1.54,0 -2.78,1.25 -2.78,2.79 0,1.54 1.24,2.78 2.78,2.78 0.04,0 0.09,0 0.13,0 l 0.81,2.57 c -0.77,0.51 -1.24,1.36 -1.24,2.31 0,1.54 1.24,2.78 2.78,2.78 1.24,0 2.36,-0.86 2.7,-2.06 h 2.69 c 0.35,1.2 1.42,2.06 2.7,2.06 1.54,0 2.78,-1.24 2.78,-2.78 0,-0.95 -0.47,-1.8 -1.24,-2.31 l 0.81,-2.57 c 0.05,0 0.09,0 0.13,0 1.54,0 2.78,-1.24 2.78,-2.78 0,-1.54 -1.24,-2.79 -2.78,-2.79 -0.64,0 -1.24,0.22 -1.75,0.6 l -2.18,-1.58 c 0.12,-0.3 0.17,-0.64 0.17,-0.98 0.04,-1.54 -1.24,-2.78 -2.78,-2.78 z"
   class="st6"
   id="path56" />
				</g><path
     d="m 476.48208,173.9764 c -0.68,0 -1.28,0.3 -1.71,0.73 l -2.74,-2.01 c 0.17,-0.35 0.3,-0.73 0.3,-1.12 0,-1.28 -1.07,-2.35 -2.35,-2.35 -1.29,0 -2.36,1.07 -2.36,2.35 0,0.39 0.09,0.77 0.3,1.12 l -2.73,2.01 c -0.43,-0.43 -1.03,-0.73 -1.72,-0.73 -1.28,0 -2.35,1.07 -2.35,2.35 0,1.29 1.07,2.36 2.35,2.36 0.13,0 0.3,0 0.43,-0.05 l 1.03,3.21 c -0.77,0.39 -1.33,1.2 -1.33,2.14 0,1.29 1.07,2.36 2.36,2.36 1.19,0 2.18,-0.9 2.35,-2.06 h 3.38 c 0.17,1.16 1.15,2.06 2.35,2.06 1.29,0 2.36,-1.07 2.36,-2.36 0,-0.94 -0.56,-1.75 -1.33,-2.14 l 0.98,-3.21 c 0.13,0.05 0.3,0.05 0.43,0.05 1.29,0 2.35,-1.07 2.35,-2.36 0,-1.28 -1.06,-2.35 -2.35,-2.35 z m -2.48,11.73 c -0.94,0 -1.71,-0.78 -1.71,-1.72 0,-0.94 0.77,-1.71 1.71,-1.71 0.94,0 1.71,0.77 1.71,1.71 0,0.94 -0.77,1.72 -1.71,1.72 z m -5.73,-2.02 c -0.09,-0.55 -0.35,-1.02 -0.73,-1.41 l 1.28,-1.8 c 0.34,0.18 0.73,0.3 1.11,0.3 0.39,0 0.77,-0.08 1.12,-0.3 l 1.28,1.8 c -0.38,0.34 -0.64,0.86 -0.73,1.41 z m -4.07,0.3 c 0,-0.94 0.77,-1.71 1.71,-1.71 0.94,0 1.71,0.77 1.71,1.71 0,0.94 -0.77,1.72 -1.71,1.72 -0.94,0 -1.71,-0.78 -1.71,-1.72 z m -0.77,-9.41 c 0.94,0 1.71,0.77 1.71,1.71 0,0.94 -0.77,1.71 -1.71,1.71 -0.94,0 -1.71,-0.77 -1.71,-1.71 0,-0.94 0.77,-1.71 1.71,-1.71 z m 4.79,-3 c 0,-0.94 0.77,-1.71 1.71,-1.71 0.95,0 1.72,0.77 1.72,1.71 0,0.95 -0.77,1.72 -1.72,1.72 -0.94,0 -1.71,-0.77 -1.71,-1.72 z m 5.95,5.14 -2.1,0.68 c -0.34,-0.68 -1.02,-1.19 -1.79,-1.32 v -2.14 c 0.55,-0.09 1.02,-0.34 1.37,-0.73 l 2.73,2.01 c -0.17,0.34 -0.29,0.73 -0.29,1.11 0.04,0.13 0.04,0.26 0.08,0.39 z m -2.48,1.71 c 0,0.94 -0.77,1.71 -1.71,1.71 -0.94,0 -1.71,-0.77 -1.71,-1.71 0,-0.94 0.77,-1.71 1.71,-1.71 0.94,0 1.71,0.73 1.71,1.71 z m -2.05,-4.49 v 2.14 c -0.82,0.13 -1.5,0.6 -1.8,1.32 l -2.1,-0.68 c 0.04,-0.13 0.04,-0.26 0.04,-0.43 0,-0.38 -0.08,-0.77 -0.3,-1.11 l 2.74,-2.01 c 0.39,0.43 0.86,0.68 1.42,0.77 z m -4.07,3.38 2.1,0.68 c -0.05,0.13 -0.05,0.26 -0.05,0.43 0,0.69 0.3,1.28 0.73,1.71 l -1.28,1.8 c -0.34,-0.17 -0.73,-0.3 -1.11,-0.3 -0.13,0 -0.3,0 -0.43,0.04 l -1.03,-3.21 c 0.43,-0.25 0.81,-0.64 1.07,-1.15 z m 8.43,4.32 c -0.39,0 -0.77,0.09 -1.11,0.3 l -1.29,-1.8 c 0.47,-0.43 0.73,-1.02 0.73,-1.71 0,-0.13 0,-0.3 -0.04,-0.43 l 2.09,-0.68 c 0.22,0.47 0.65,0.85 1.12,1.11 l -1.07,3.21 c -0.17,0 -0.3,0 -0.43,0 z m 0.77,-5.31 c 0,-0.94 0.77,-1.71 1.71,-1.71 0.94,0 1.71,0.77 1.71,1.71 0,0.95 -0.77,1.72 -1.71,1.72 -0.94,0 -1.71,-0.77 -1.71,-1.72 z"
     class="st7"
     id="path62" /><path
     d="M 36.105891,175.52429 H 167.44589 V 28.234294 H 36.105891 Z"
     class="st3"
     id="path70" /><text
     x="40.105892"
     y="40.334293"
     class="st4"
     v:langID="1033"
     id="text74"><v:paragraph /><v:tabList />VCN-1<v:newlineChar /><tspan
   x="40.105892"
   dy="16.200001"
   class="st5"
   id="tspan72">10.0.0.0/16</tspan></text><g
     id="shape11-25"
     v:mID="11"
     v:groupContext="shape"
     v:layerMember="0"
     transform="translate(158.35234,-13.939655)">
					<title
   id="title81">Sheet.11</title>
					<path
   d="m 13.14,200.5 c -1.2,0 -2.27,-0.86 -2.53,-2.06 H 7.57 c -0.25,1.16 -1.28,2.06 -2.52,2.06 -1.41,0 -2.57,-1.16 -2.57,-2.57 0,-0.9 0.52,-1.75 1.29,-2.23 l -0.95,-2.86 c -0.08,0 -0.17,0 -0.25,0 -1.41,0 -2.57,-1.16 -2.57,-2.57 0,-1.41 1.16,-2.57 2.57,-2.57 0.64,0 1.24,0.22 1.71,0.69 l 2.48,-1.8 c -0.13,-0.34 -0.21,-0.68 -0.21,-1.07 0,-1.41 1.15,-2.57 2.56,-2.57 1.42,0 2.57,1.16 2.57,2.57 0,0.34 -0.08,0.73 -0.21,1.07 l 2.44,1.8 c 0.47,-0.43 1.07,-0.69 1.71,-0.69 1.41,0 2.57,1.16 2.57,2.57 0,1.41 -1.16,2.57 -2.57,2.57 -0.09,0 -0.17,0 -0.26,0 l -0.94,2.86 c 0.77,0.48 1.28,1.33 1.28,2.23 0,1.41 -1.15,2.57 -2.56,2.57 z"
   class="st6"
   id="path83" />
				</g><g
     id="shape12-27"
     v:mID="12"
     v:groupContext="shape"
     v:layerMember="0"
     transform="translate(158.13839,-13.725707)">
					<title
   id="title86">Sheet.12</title>
					<path
   d="m 9.29,182.95 c 1.28,0 2.35,1.07 2.35,2.36 0,0.38 -0.09,0.77 -0.3,1.11 l 2.74,2.01 c 0.43,-0.47 1.02,-0.73 1.71,-0.73 1.28,0 2.35,1.07 2.35,2.36 0,1.28 -1.07,2.35 -2.35,2.35 -0.13,0 -0.3,0 -0.43,-0.04 l -1.07,3.21 c 0.77,0.38 1.33,1.19 1.33,2.14 0,1.28 -1.07,2.35 -2.36,2.35 -1.19,0 -2.18,-0.9 -2.35,-2.05 H 7.53 c -0.17,1.15 -1.15,2.05 -2.35,2.05 -1.29,0 -2.36,-1.07 -2.36,-2.35 0,-0.95 0.56,-1.76 1.33,-2.14 l -0.94,-3.21 c -0.13,0.04 -0.3,0.04 -0.43,0.04 -1.28,0 -2.35,-1.07 -2.35,-2.35 0,-1.29 1.07,-2.36 2.35,-2.36 0.69,0 1.29,0.3 1.71,0.73 l 2.74,-2.01 c -0.17,-0.34 -0.3,-0.73 -0.3,-1.11 0,-1.29 1.07,-2.36 2.36,-2.36 z m 0,-0.42 c -1.55,0 -2.79,1.24 -2.79,2.78 0,0.34 0.05,0.68 0.18,0.98 l -2.19,1.58 c -0.47,-0.38 -1.11,-0.6 -1.71,-0.6 -1.54,0 -2.78,1.25 -2.78,2.79 0,1.54 1.24,2.78 2.78,2.78 0.04,0 0.09,0 0.13,0 l 0.81,2.57 c -0.77,0.51 -1.24,1.36 -1.24,2.31 0,1.54 1.24,2.78 2.78,2.78 1.24,0 2.36,-0.86 2.7,-2.06 h 2.69 c 0.35,1.2 1.42,2.06 2.7,2.06 1.54,0 2.78,-1.24 2.78,-2.78 0,-0.95 -0.47,-1.8 -1.24,-2.31 l 0.81,-2.57 c 0.05,0 0.09,0 0.13,0 1.54,0 2.78,-1.24 2.78,-2.78 0,-1.54 -1.24,-2.79 -2.78,-2.79 -0.64,0 -1.24,0.22 -1.75,0.6 l -2.18,-1.58 c 0.12,-0.3 0.17,-0.64 0.17,-0.98 0.04,-1.54 -1.24,-2.78 -2.78,-2.78 z"
   class="st6"
   id="path88" />
				</g><path
     d="m 173.96908,173.9764 c -0.68,0 -1.28,0.3 -1.71,0.73 l -2.74,-2.01 c 0.17,-0.35 0.3,-0.73 0.3,-1.12 0,-1.28 -1.07,-2.35 -2.35,-2.35 -1.29,0 -2.36,1.07 -2.36,2.35 0,0.39 0.09,0.77 0.3,1.12 l -2.73,2.01 c -0.43,-0.43 -1.03,-0.73 -1.72,-0.73 -1.28,0 -2.35,1.07 -2.35,2.35 0,1.29 1.07,2.36 2.35,2.36 0.13,0 0.3,0 0.43,-0.05 l 1.03,3.21 c -0.77,0.39 -1.33,1.2 -1.33,2.14 0,1.29 1.07,2.36 2.36,2.36 1.19,0 2.18,-0.9 2.35,-2.06 h 3.38 c 0.17,1.16 1.15,2.06 2.35,2.06 1.29,0 2.36,-1.07 2.36,-2.36 0,-0.94 -0.56,-1.75 -1.33,-2.14 l 0.98,-3.21 c 0.13,0.05 0.3,0.05 0.43,0.05 1.29,0 2.35,-1.07 2.35,-2.36 0,-1.28 -1.06,-2.35 -2.35,-2.35 z m -2.48,11.73 c -0.94,0 -1.71,-0.78 -1.71,-1.72 0,-0.94 0.77,-1.71 1.71,-1.71 0.94,0 1.71,0.77 1.71,1.71 0,0.94 -0.77,1.72 -1.71,1.72 z m -5.73,-2.02 c -0.09,-0.55 -0.35,-1.02 -0.73,-1.41 l 1.28,-1.8 c 0.34,0.18 0.73,0.3 1.11,0.3 0.39,0 0.77,-0.08 1.12,-0.3 l 1.28,1.8 c -0.38,0.34 -0.64,0.86 -0.73,1.41 z m -4.07,0.3 c 0,-0.94 0.77,-1.71 1.71,-1.71 0.94,0 1.71,0.77 1.71,1.71 0,0.94 -0.77,1.72 -1.71,1.72 -0.94,0 -1.71,-0.78 -1.71,-1.72 z m -0.77,-9.41 c 0.94,0 1.71,0.77 1.71,1.71 0,0.94 -0.77,1.71 -1.71,1.71 -0.94,0 -1.71,-0.77 -1.71,-1.71 0,-0.94 0.77,-1.71 1.71,-1.71 z m 4.79,-3 c 0,-0.94 0.77,-1.71 1.71,-1.71 0.95,0 1.72,0.77 1.72,1.71 0,0.95 -0.77,1.72 -1.72,1.72 -0.94,0 -1.71,-0.77 -1.71,-1.72 z m 5.95,5.14 -2.1,0.68 c -0.34,-0.68 -1.02,-1.19 -1.79,-1.32 v -2.14 c 0.55,-0.09 1.02,-0.34 1.37,-0.73 l 2.73,2.01 c -0.17,0.34 -0.29,0.73 -0.29,1.11 0.04,0.13 0.04,0.26 0.08,0.39 z m -2.48,1.71 c 0,0.94 -0.77,1.71 -1.71,1.71 -0.94,0 -1.71,-0.77 -1.71,-1.71 0,-0.94 0.77,-1.71 1.71,-1.71 0.94,0 1.71,0.73 1.71,1.71 z m -2.05,-4.49 v 2.14 c -0.82,0.13 -1.5,0.6 -1.8,1.32 l -2.1,-0.68 c 0.04,-0.13 0.04,-0.26 0.04,-0.43 0,-0.38 -0.08,-0.77 -0.3,-1.11 l 2.74,-2.01 c 0.39,0.43 0.86,0.68 1.42,0.77 z m -4.07,3.38 2.1,0.68 c -0.05,0.13 -0.05,0.26 -0.05,0.43 0,0.69 0.3,1.28 0.73,1.71 l -1.28,1.8 c -0.34,-0.17 -0.73,-0.3 -1.11,-0.3 -0.13,0 -0.3,0 -0.43,0.04 l -1.03,-3.21 c 0.43,-0.25 0.81,-0.64 1.07,-1.15 z m 8.43,4.32 c -0.39,0 -0.77,0.09 -1.11,0.3 l -1.29,-1.8 c 0.47,-0.43 0.73,-1.02 0.73,-1.71 0,-0.13 0,-0.3 -0.04,-0.43 l 2.09,-0.68 c 0.22,0.47 0.65,0.85 1.12,1.11 l -1.07,3.21 c -0.17,0 -0.3,0 -0.43,0 z m 0.77,-5.31 c 0,-0.94 0.77,-1.71 1.71,-1.71 0.94,0 1.71,0.77 1.71,1.71 0,0.95 -0.77,1.72 -1.71,1.72 -0.94,0 -1.71,-0.77 -1.71,-1.72 z"
     class="st7"
     id="path94" /><g
     id="shape18-33"
     v:mID="18"
     v:groupContext="shape"
     transform="translate(72.944591,-27.225807)">
					<title
   id="title102">Sheet.18</title>
					<desc
   id="desc104">Route Table</desc>
					<v:textBlock
   v:margins="rect(4,4,4,4)" />
					<v:textRect
   cx="18"
   cy="191.511"
   width="36"
   height="17.9717" />
					<rect
   x="0"
   y="182.52499"
   width="36"
   height="17.971701"
   class="st8"
   id="rect106" />
					<text
   x="7.3200002"
   y="189.11"
   class="st9"
   v:langID="1033"
   id="text110"><v:paragraph
   v:horizAlign="1"
   v:bulletSize="0.166667" /><v:tabList />Route <v:lf /><tspan
   x="8"
   dy="1.2em"
   class="st10"
   id="tspan108">Table</tspan></text>				</g><g
     id="group19-37"
     transform="translate(72.944591,-45.461607)"
     v:mID="19"
     v:groupContext="group">
					<title
   id="title113">Route Table</title>
					<g
   id="group20-38"
   v:mID="20"
   v:groupContext="group">
						<title
   id="title115">Sheet.20</title>
						<g
   id="group21-39"
   v:mID="21"
   v:groupContext="group">
							<title
   id="title117">Sheet.21</title>
							<g
   id="shape22-40"
   v:mID="22"
   v:groupContext="shape"
   transform="translate(0.428571,-0.428571)">
								<title
   id="title119">Sheet.22</title>
								<rect
   x="0"
   y="165.354"
   width="35.142799"
   height="35.142799"
   class="st11"
   id="rect121" />
							</g>
							<g
   id="shape23-42"
   v:mID="23"
   v:groupContext="shape">
								<title
   id="title124">Sheet.23</title>
								<path
   d="m 35.14,165.35 v 34.29 H 0.86 V 165.35 Z M 36,164.5 H 35.14 0.86 0 v 0.85 34.29 0.86 H 0.86 35.14 36 v -0.86 -34.29 z"
   class="st11"
   id="path126" />
							</g>
						</g>
						<g
   id="group24-44"
   transform="translate(0.857142,-0.857142)"
   v:mID="24"
   v:groupContext="group">
							<title
   id="title130">Sheet.24</title>
							<g
   id="shape25-45"
   v:mID="25"
   v:groupContext="shape">
								<title
   id="title132">Sheet.25</title>
								<path
   d="m 0,166.21 v 34.29 h 34.29 v -34.29 z m 33,10.97 H 10.8 V 167.5 H 33 Z M 1.29,189.53 h 8.22 v 9.77 H 1.29 Z M 9.51,167.5 v 9.77 H 1.29 v -9.77 z m 0,10.97 v 9.77 H 1.29 v -9.77 z m 1.29,20.74 v -9.68 H 33 v 9.77 H 10.8 Z m 0,-10.97 v -9.77 H 33 v 9.77 z"
   class="st12"
   id="path134" />
							</g>
							<g
   id="shape26-47"
   v:mID="26"
   v:groupContext="shape"
   transform="translate(12,-24.6)">
								<title
   id="title137">Sheet.26</title>
								<path
   d="M 0,200.5 H 1.46 L 2.23,199.04 3,200.5 h 1.37 l -1.28,-2.32 1.2,-2.14 H 2.91 l -0.68,1.37 -0.77,-1.37 H 0.09 l 1.28,2.14 z"
   class="st12"
   id="path139" />
							</g>
							<g
   id="shape27-49"
   v:mID="27"
   v:groupContext="shape"
   transform="translate(17.0571,-24.6)">
								<title
   id="title142">Sheet.27</title>
								<rect
   x="0"
   y="199.468"
   width="1.2"
   height="1.0285701"
   class="st12"
   id="rect144" />
							</g>
							<g
   id="shape28-51"
   v:mID="28"
   v:groupContext="shape"
   transform="translate(19.2,-24.6)">
								<title
   id="title147">Sheet.28</title>
								<path
   d="m 1.37,200.5 0.77,-1.46 0.77,1.46 H 4.29 L 2.91,198.18 4.2,196.04 H 2.91 l -0.77,1.37 -0.77,-1.37 H 0 L 1.29,198.18 0,200.5 Z"
   class="st12"
   id="path149" />
							</g>
							<g
   id="shape29-53"
   v:mID="29"
   v:groupContext="shape"
   transform="translate(23.9143,-24.6)">
								<title
   id="title152">Sheet.29</title>
								<rect
   x="0"
   y="199.468"
   width="1.2"
   height="1.0285701"
   class="st12"
   id="rect154" />
							</g>
							<g
   id="shape30-55"
   v:mID="30"
   v:groupContext="shape"
   transform="translate(25.8,-24.6)">
								<title
   id="title157">Sheet.30</title>
								<path
   d="M 1.37,200.5 2.14,199.04 3,200.5 H 4.29 L 3,198.18 4.2,196.04 H 2.91 l -0.77,1.37 -0.77,-1.37 H 0.09 l 1.2,2.14 L 0,200.5 Z"
   class="st12"
   id="path159" />
							</g>
							<g
   id="shape31-57"
   v:mID="31"
   v:groupContext="shape"
   transform="translate(30.5143,-24.6)">
								<title
   id="title162">Sheet.31</title>
								<rect
   x="0"
   y="199.468"
   width="1.2"
   height="1.0285701"
   class="st12"
   id="rect164" />
							</g>
							<g
   id="shape32-59"
   v:mID="32"
   v:groupContext="shape"
   transform="translate(12,-13.4571)">
								<title
   id="title167">Sheet.32</title>
								<path
   d="M 4.29,196.04 H 2.91 l -0.68,1.37 -0.77,-1.37 H 0.09 L 1.37,198.18 0,200.5 H 1.46 L 2.23,199.04 3,200.5 h 1.37 l -1.28,-2.32 z"
   class="st12"
   id="path169" />
							</g>
							<g
   id="shape33-61"
   v:mID="33"
   v:groupContext="shape"
   transform="translate(17.0571,-13.5429)">
								<title
   id="title172">Sheet.33</title>
								<rect
   x="0"
   y="199.468"
   width="1.2"
   height="1.0285701"
   class="st12"
   id="rect174" />
							</g>
							<g
   id="shape34-63"
   v:mID="34"
   v:groupContext="shape"
   transform="translate(19.2,-13.4571)">
								<title
   id="title177">Sheet.34</title>
								<path
   d="M 4.2,196.04 H 2.91 l -0.77,1.37 -0.77,-1.37 H 0 L 1.29,198.18 0,200.5 h 1.37 l 0.77,-1.46 0.77,1.46 h 1.38 l -1.38,-2.32 z"
   class="st12"
   id="path179" />
							</g>
							<g
   id="shape35-65"
   v:mID="35"
   v:groupContext="shape"
   transform="translate(23.9143,-13.5429)">
								<title
   id="title182">Sheet.35</title>
								<rect
   x="0"
   y="199.468"
   width="1.2"
   height="1.0285701"
   class="st12"
   id="rect184" />
							</g>
							<g
   id="shape36-67"
   v:mID="36"
   v:groupContext="shape"
   transform="translate(25.8,-13.4571)">
								<title
   id="title187">Sheet.36</title>
								<path
   d="M 4.2,196.04 H 2.91 l -0.77,1.37 -0.77,-1.37 H 0.09 l 1.2,2.14 L 0,200.5 H 1.37 L 2.14,199.04 3,200.5 H 4.29 L 3,198.18 Z"
   class="st12"
   id="path189" />
							</g>
							<g
   id="shape37-69"
   v:mID="37"
   v:groupContext="shape"
   transform="translate(30.5143,-13.5429)">
								<title
   id="title192">Sheet.37</title>
								<rect
   x="0"
   y="199.468"
   width="1.2"
   height="1.0285701"
   class="st12"
   id="rect194" />
							</g>
							<g
   id="shape38-71"
   v:mID="38"
   v:groupContext="shape"
   transform="translate(12,-2.57143)">
								<title
   id="title197">Sheet.38</title>
								<path
   d="M 4.29,196.13 H 2.91 l -0.68,1.28 -0.77,-1.28 H 0.09 L 1.37,198.18 0,200.5 H 1.46 L 2.23,199.04 3,200.5 h 1.37 l -1.28,-2.23 z"
   class="st12"
   id="path199" />
							</g>
							<g
   id="shape39-73"
   v:mID="39"
   v:groupContext="shape"
   transform="translate(17.0571,-2.57143)">
								<title
   id="title202">Sheet.39</title>
								<rect
   x="0"
   y="199.468"
   width="1.2"
   height="1.0285701"
   class="st12"
   id="rect204" />
							</g>
							<g
   id="shape40-75"
   v:mID="40"
   v:groupContext="shape"
   transform="translate(19.2,-2.57143)">
								<title
   id="title207">Sheet.40</title>
								<path
   d="M 4.2,196.13 H 2.91 l -0.77,1.28 -0.77,-1.28 H 0 L 1.29,198.18 0,200.5 h 1.37 l 0.77,-1.46 0.77,1.46 h 1.38 l -1.38,-2.23 z"
   class="st12"
   id="path209" />
							</g>
							<g
   id="shape41-77"
   v:mID="41"
   v:groupContext="shape"
   transform="translate(23.9143,-2.57143)">
								<title
   id="title212">Sheet.41</title>
								<rect
   x="0"
   y="199.468"
   width="1.2"
   height="1.0285701"
   class="st12"
   id="rect214" />
							</g>
							<g
   id="shape42-79"
   v:mID="42"
   v:groupContext="shape"
   transform="translate(25.8,-2.57143)">
								<title
   id="title217">Sheet.42</title>
								<path
   d="M 4.2,196.13 H 2.91 l -0.77,1.28 -0.77,-1.28 H 0.09 l 1.2,2.05 L 0,200.5 H 1.37 L 2.14,199.04 3,200.5 H 4.29 L 3,198.27 Z"
   class="st12"
   id="path219" />
							</g>
							<g
   id="shape43-81"
   v:mID="43"
   v:groupContext="shape"
   transform="translate(30.5143,-2.57143)">
								<title
   id="title222">Sheet.43</title>
								<rect
   x="0"
   y="199.468"
   width="1.2"
   height="1.0285701"
   class="st12"
   id="rect224" />
							</g>
						</g>
					</g>
				</g><g
     id="group45-84"
     transform="translate(119.81039,-45.461607)"
     v:mID="45"
     v:groupContext="group">
					<title
   id="title233">Security List</title>
					<g
   id="group46-85"
   v:mID="46"
   v:groupContext="group">
						<title
   id="title235">Sheet.46</title>
						<g
   id="group47-86"
   v:mID="47"
   v:groupContext="group">
							<title
   id="title237">Sheet.47</title>
							<g
   id="shape48-87"
   v:mID="48"
   v:groupContext="shape"
   transform="translate(0.42654,-0.42654)">
								<title
   id="title239">Sheet.48</title>
								<path
   d="M 13.05,200.33 C 6.4,197.85 3.24,193.59 1.71,190.35 0,186.68 0,183.61 0,183.44 v -12.29 l 13.39,-5.71 13.31,5.71 v 12.37 c 0,0.51 -0.17,12.11 -12.88,16.81 l -0.34,0.17 z"
   class="st13"
   id="path241" />
							</g>
							<g
   id="shape49-89"
   v:mID="49"
   v:groupContext="shape">
								<title
   id="title244">Sheet.49</title>
								<path
   d="m 13.82,165.44 12.88,5.54 v 12.11 c 0,0.52 -0.17,11.78 -12.62,16.38 l -0.26,0.09 -0.17,-0.09 C 7.08,197.08 4.01,192.9 2.56,189.75 0.94,186.25 0.85,183.18 0.85,183.09 v -12.11 z m 0,-0.94 -0.34,0.17 -12.97,5.54 -0.51,0.17 v 0.6 12.11 c 0,0.17 0,3.33 1.79,7.08 1.54,3.25 4.78,7.68 11.6,10.16 l 0.26,0.08 0.26,0.09 0.25,-0.09 0.26,-0.08 c 13.05,-4.78 13.22,-16.72 13.22,-17.24 v -12.11 -0.6 l -0.51,-0.25 -12.97,-5.46 z"
   class="st13"
   id="path246" />
							</g>
						</g>
						<g
   id="group50-91"
   transform="translate(0.85308,-0.938388)"
   v:mID="50"
   v:groupContext="group">
							<title
   id="title250">Sheet.50</title>
							<g
   id="shape51-92"
   v:mID="51"
   v:groupContext="shape"
   transform="translate(1.27962,-1.36493)">
								<title
   id="title252">Sheet.51</title>
								<path
   d="m 0,174.14 v 11.26 c 0,0.08 0,2.9 1.54,6.14 1.96,4.18 5.37,7.17 10.15,8.96 11.43,-4.35 11.6,-14.68 11.6,-15.1 v -11.26 l -11.6,-5.04 z m 11.6,16.8 H 3.84 v -1.28 h 7.76 z m 0,-5.8 H 3.84 v -1.28 h 7.76 z m 0,-6.23 H 3.84 v -1.28 h 7.76 z m 3.5,-1.28 1.02,1.03 2.56,-2.56 0.86,0.85 -3.42,3.41 -1.87,-1.87 z m 3.92,8.11 -0.85,0.85 -1.28,-1.28 -1.28,1.28 -0.85,-0.85 1.28,-1.28 -1.28,-1.28 0.85,-0.85 1.28,1.28 1.28,-1.28 0.85,0.85 -1.28,1.28 z m -3.92,3.92 1.02,1.03 2.56,-2.56 0.86,0.85 -3.42,3.41 -1.87,-1.87 z"
   class="st14"
   id="path254" />
							</g>
							<g
   id="shape52-94"
   v:mID="52"
   v:groupContext="shape">
								<title
   id="title257">Sheet.52</title>
								<path
   d="M 12.97,166.37 0,171.92 v 12.11 c 0,0.09 0,3.16 1.71,6.66 1.45,3.15 4.6,7.33 11.09,9.72 l 0.25,0.09 0.26,-0.09 c 12.45,-4.6 12.62,-15.95 12.62,-16.38 v -12.11 z m 11.6,17.66 c 0,0.43 -0.17,10.75 -11.6,15.1 -4.78,-1.79 -8.19,-4.78 -10.15,-8.96 -1.54,-3.32 -1.54,-6.05 -1.54,-6.14 v -11.26 l 11.69,-5.03 11.6,5.03 z"
   class="st15"
   id="path259" />
							</g>
							<g
   id="shape53-96"
   v:mID="53"
   v:groupContext="shape"
   transform="translate(5.11848,-22.9479)">
								<title
   id="title262">Sheet.53</title>
								<rect
   x="0"
   y="199.217"
   width="7.7630301"
   height="1.2796201"
   class="st15"
   id="rect264" />
							</g>
							<g
   id="shape54-98"
   v:mID="54"
   v:groupContext="shape"
   transform="translate(15.4408,-21.4123)">
								<title
   id="title267">Sheet.54</title>
								<path
   d="M 5.37,197.08 4.44,196.23 1.96,198.71 0.94,197.68 0,198.62 1.96,200.5 Z"
   class="st15"
   id="path269" />
							</g>
							<g
   id="shape55-100"
   v:mID="55"
   v:groupContext="shape"
   transform="translate(5.11848,-16.7204)">
								<title
   id="title272">Sheet.55</title>
								<rect
   x="0"
   y="199.217"
   width="7.7630301"
   height="1.2796201"
   class="st15"
   id="rect274" />
							</g>
							<g
   id="shape56-102"
   v:mID="56"
   v:groupContext="shape"
   transform="translate(15.9526,-15.1848)">
								<title
   id="title277">Sheet.56</title>
								<path
   d="M 3.5,196.06 2.22,197.43 0.85,196.06 0,197 1.28,198.28 0,199.56 0.85,200.5 2.22,199.22 3.5,200.5 4.35,199.56 3.07,198.28 4.35,197 Z"
   class="st15"
   id="path279" />
							</g>
							<g
   id="shape57-104"
   v:mID="57"
   v:groupContext="shape"
   transform="translate(5.11848,-10.9194)">
								<title
   id="title282">Sheet.57</title>
								<rect
   x="0"
   y="199.217"
   width="7.7630301"
   height="1.2796201"
   class="st15"
   id="rect284" />
							</g>
							<g
   id="shape58-106"
   v:mID="58"
   v:groupContext="shape"
   transform="translate(15.4408,-9.38388)">
								<title
   id="title287">Sheet.58</title>
								<path
   d="M 5.37,197.08 4.44,196.23 1.96,198.71 0.94,197.68 0,198.62 1.96,200.5 Z"
   class="st15"
   id="path289" />
							</g>
						</g>
					</g>
				</g><g
     id="shape59-108"
     v:mID="59"
     v:groupContext="shape"
     transform="translate(104.38029,-34.500107)">
					<title
   id="title295">Sheet.59</title>
					<desc
   id="desc297">Security List</desc>
					<v:textBlock
   v:margins="rect(4,4,4,4)" />
					<v:textRect
   cx="29.25"
   cy="194.035"
   width="58.5"
   height="12.9231" />
					<rect
   x="0"
   y="187.57401"
   width="58.5"
   height="12.9231"
   class="st8"
   id="rect299" />
					<text
   x="7.23"
   y="196.44"
   class="st9"
   v:langID="1033"
   id="text301"><v:paragraph
   v:horizAlign="1"
   v:bulletSize="0.166667" /><v:tabList />Security List</text>				</g><path
     d="m 149.44432,88.094194 c 0,-0.17 0.06,-0.32 0.13,-0.32 h 35.74 c 0.07,0 0.13,0.15 0.13,0.32 v 17.359996 c 0,0.17 -0.06,0.32 -0.13,0.32 h -35.74 c -0.07,0 -0.13,-0.15 -0.13,-0.32 z"
     class="st16"
     id="path310" /><g
     id="group63-115"
     transform="translate(149.04754,-108.47261)"
     v:mID="63"
     v:groupContext="group"
     v:layerMember="0">
					<title
   id="title315">Direct Routing Gateway DRG</title>
					<g
   id="shape64-116"
   v:mID="64"
   v:groupContext="shape"
   v:layerMember="0">
						<title
   id="title317">Sheet.64</title>
						<circle
   cx="18.1752"
   cy="182.32201"
   class="st11"
   id="ellipse319"
   r="18.1752" />
					</g>
					<g
   id="shape65-118"
   v:mID="65"
   v:groupContext="shape"
   v:layerMember="0"
   transform="translate(0.443298,-5.00993)">
						<title
   id="title322">Sheet.65</title>
						<path
   d="M 17.73,169.6 A 17.7319,17.7319 0 1 1 0,187.33 17.7319,17.7319 0 0 1 17.73,169.6 Z m 0,-0.89 a 18.6185,18.6185 -180 1 0 18.62,18.62 18.6185,18.6185 -180 0 0 -18.62,-18.62 z"
   class="st11"
   id="path324" />
					</g>
					<g
   id="shape66-120"
   v:mID="66"
   v:groupContext="shape"
   v:layerMember="0"
   transform="translate(5.63685,-1.92391)">
						<title
   id="title327">Sheet.66</title>
						<path
   d="m 12.54,166.51 a 17.7319,17.7319 -180 1 0 17.73,17.74 17.7319,17.7319 -180 0 0 -17.73,-17.74 z m 0,33.99 A 16.2513,16.2513 0 1 1 28.79,184.25 16.269,16.269 0 0 1 12.54,200.5 Z"
   class="st17"
   id="path329" />
					</g>
					<g
   id="shape67-122"
   v:mID="67"
   v:groupContext="shape"
   v:layerMember="0"
   transform="translate(14.1412,-4.93834)">
						<title
   id="title332">Sheet.67</title>
						<path
   d="m 4.77,197.67 v -20.63 l 2.25,2.25 1.05,-1.05 -4.04,-4.03 -4.03,4.03 1.05,1.05 2.25,-2.25 v 20.63 l -2.25,-2.25 -1.05,1.04 4.03,4.04 4.04,-4.04 -1.05,-1.04 z"
   class="st17"
   id="path334" />
					</g>
					<g
   id="shape68-124"
   v:mID="68"
   v:groupContext="shape"
   v:layerMember="0"
   transform="translate(5.06246,-14.1412)">
						<title
   id="title337">Sheet.68</title>
						<path
   d="m 8.28,192.43 -1.05,1.05 2.26,2.25 H 0 v 1.47 h 9.49 l -2.26,2.25 1.05,1.05 4.03,-4.04 z"
   class="st17"
   id="path339" />
					</g>
					<g
   id="shape69-126"
   v:mID="69"
   v:groupContext="shape"
   v:layerMember="0"
   transform="translate(18.982,-14.1412)">
						<title
   id="title342">Sheet.69</title>
						<path
   d="m 2.82,195.73 2.25,-2.25 -1.04,-1.05 -4.03,4.03 4.03,4.04 1.04,-1.05 -2.25,-2.25 h 9.49 v -1.47 z"
   class="st17"
   id="path344" />
					</g>
				</g><g
     id="shape70-128"
     v:mID="70"
     v:groupContext="shape"
     v:layerMember="0"
     transform="translate(140.64439,-91.266406)">
					<title
   id="title348">Sheet.70</title>
					<desc
   id="desc350">DRG-1</desc>
					<v:textBlock
   v:margins="rect(4,4,4,4)" />
					<v:textRect
   cx="26.8"
   cy="191.695"
   width="53.6"
   height="17.6031" />
					<rect
   x="0"
   y="182.894"
   width="53.599998"
   height="17.6031"
   class="st8"
   id="rect352" />
					<text
   x="14.66"
   y="194.10001"
   class="st18"
   v:langID="1033"
   id="text354"><v:paragraph
   v:horizAlign="1"
   v:bulletSize="0.166667" /><v:tabList />DRG-1</text>				</g><path
     d="m 321.09306,91.553594 c 0,-0.17 0.06,-0.32 0.13,-0.32 h 35.74 c 0.07,0 0.13,0.15 0.13,0.32 v 17.359996 c 0,0.17 -0.06,0.32 -0.13,0.32 h -35.74 c -0.07,0 -0.13,-0.15 -0.13,-0.32 z"
     class="st16"
     id="path363" /><g
     id="group74-135"
     transform="translate(320.42254,-108.47261)"
     v:mID="74"
     v:groupContext="group"
     v:layerMember="0">
					<title
   id="title368">Direct Routing Gateway DRG</title>
					<g
   id="shape75-136"
   v:mID="75"
   v:groupContext="shape"
   v:layerMember="0">
						<title
   id="title370">Sheet.75</title>
						<circle
   cx="18.1752"
   cy="182.32201"
   class="st11"
   id="ellipse372"
   r="18.1752" />
					</g>
					<g
   id="shape76-138"
   v:mID="76"
   v:groupContext="shape"
   v:layerMember="0"
   transform="translate(0.443298,-5.00993)">
						<title
   id="title375">Sheet.76</title>
						<path
   d="M 17.73,169.6 A 17.7319,17.7319 0 1 1 0,187.33 17.7319,17.7319 0 0 1 17.73,169.6 Z m 0,-0.89 a 18.6185,18.6185 -180 1 0 18.62,18.62 18.6185,18.6185 -180 0 0 -18.62,-18.62 z"
   class="st11"
   id="path377" />
					</g>
					<g
   id="shape77-140"
   v:mID="77"
   v:groupContext="shape"
   v:layerMember="0"
   transform="translate(5.63685,-1.92391)">
						<title
   id="title380">Sheet.77</title>
						<path
   d="m 12.54,166.51 a 17.7319,17.7319 -180 1 0 17.73,17.74 17.7319,17.7319 -180 0 0 -17.73,-17.74 z m 0,33.99 A 16.2513,16.2513 0 1 1 28.79,184.25 16.269,16.269 0 0 1 12.54,200.5 Z"
   class="st17"
   id="path382" />
					</g>
					<g
   id="shape78-142"
   v:mID="78"
   v:groupContext="shape"
   v:layerMember="0"
   transform="translate(14.1412,-4.93834)">
						<title
   id="title385">Sheet.78</title>
						<path
   d="m 4.77,197.67 v -20.63 l 2.25,2.25 1.05,-1.05 -4.04,-4.03 -4.03,4.03 1.05,1.05 2.25,-2.25 v 20.63 l -2.25,-2.25 -1.05,1.04 4.03,4.04 4.04,-4.04 -1.05,-1.04 z"
   class="st17"
   id="path387" />
					</g>
					<g
   id="shape79-144"
   v:mID="79"
   v:groupContext="shape"
   v:layerMember="0"
   transform="translate(5.06246,-14.1412)">
						<title
   id="title390">Sheet.79</title>
						<path
   d="m 8.28,192.43 -1.05,1.05 2.26,2.25 H 0 v 1.47 h 9.49 l -2.26,2.25 1.05,1.05 4.03,-4.04 z"
   class="st17"
   id="path392" />
					</g>
					<g
   id="shape80-146"
   v:mID="80"
   v:groupContext="shape"
   v:layerMember="0"
   transform="translate(18.982,-14.1412)">
						<title
   id="title395">Sheet.80</title>
						<path
   d="m 2.82,195.73 2.25,-2.25 -1.04,-1.05 -4.03,4.03 4.03,4.04 1.04,-1.05 -2.25,-2.25 h 9.49 v -1.47 z"
   class="st17"
   id="path397" />
					</g>
				</g><g
     id="shape81-148"
     v:mID="81"
     v:groupContext="shape"
     v:layerMember="0"
     transform="translate(312.01939,-91.266406)">
					<title
   id="title401">Sheet.81</title>
					<desc
   id="desc403">DRG-2</desc>
					<v:textBlock
   v:margins="rect(4,4,4,4)" />
					<v:textRect
   cx="26.8"
   cy="191.695"
   width="53.6"
   height="17.6031" />
					<rect
   x="0"
   y="182.894"
   width="53.599998"
   height="17.6031"
   class="st8"
   id="rect405" />
					<text
   x="14.66"
   y="194.10001"
   class="st18"
   v:langID="1033"
   id="text407"><v:paragraph
   v:horizAlign="1"
   v:bulletSize="0.166667" /><v:tabList />DRG-2</text>				</g><g
     id="shape84-153"
     v:mID="84"
     v:groupContext="shape"
     transform="translate(379.95739,-27.225807)">
					<title
   id="title416">Sheet.84</title>
					<desc
   id="desc418">Route Table</desc>
					<v:textBlock
   v:margins="rect(4,4,4,4)" />
					<v:textRect
   cx="18"
   cy="191.511"
   width="36"
   height="17.9717" />
					<rect
   x="0"
   y="182.52499"
   width="36"
   height="17.971701"
   class="st8"
   id="rect420" />
					<text
   x="7.3200002"
   y="189.11"
   class="st9"
   v:langID="1033"
   id="text424"><v:paragraph
   v:horizAlign="1"
   v:bulletSize="0.166667" /><v:tabList />Route <v:lf /><tspan
   x="8"
   dy="1.2em"
   class="st10"
   id="tspan422">Table</tspan></text>				</g><g
     id="group85-157"
     transform="translate(379.95739,-45.461607)"
     v:mID="85"
     v:groupContext="group">
					<title
   id="title427">Route Table</title>
					<g
   id="group86-158"
   v:mID="86"
   v:groupContext="group">
						<title
   id="title429">Sheet.86</title>
						<g
   id="group87-159"
   v:mID="87"
   v:groupContext="group">
							<title
   id="title431">Sheet.87</title>
							<g
   id="shape88-160"
   v:mID="88"
   v:groupContext="shape"
   transform="translate(0.428571,-0.428571)">
								<title
   id="title433">Sheet.88</title>
								<rect
   x="0"
   y="165.354"
   width="35.142799"
   height="35.142799"
   class="st11"
   id="rect435" />
							</g>
							<g
   id="shape89-162"
   v:mID="89"
   v:groupContext="shape">
								<title
   id="title438">Sheet.89</title>
								<path
   d="m 35.14,165.35 v 34.29 H 0.86 V 165.35 Z M 36,164.5 H 35.14 0.86 0 v 0.85 34.29 0.86 H 0.86 35.14 36 v -0.86 -34.29 z"
   class="st11"
   id="path440" />
							</g>
						</g>
						<g
   id="group90-164"
   transform="translate(0.857142,-0.857142)"
   v:mID="90"
   v:groupContext="group">
							<title
   id="title444">Sheet.90</title>
							<g
   id="shape91-165"
   v:mID="91"
   v:groupContext="shape">
								<title
   id="title446">Sheet.91</title>
								<path
   d="m 0,166.21 v 34.29 h 34.29 v -34.29 z m 33,10.97 H 10.8 V 167.5 H 33 Z M 1.29,189.53 h 8.22 v 9.77 H 1.29 Z M 9.51,167.5 v 9.77 H 1.29 v -9.77 z m 0,10.97 v 9.77 H 1.29 v -9.77 z m 1.29,20.74 v -9.68 H 33 v 9.77 H 10.8 Z m 0,-10.97 v -9.77 H 33 v 9.77 z"
   class="st12"
   id="path448" />
							</g>
							<g
   id="shape92-167"
   v:mID="92"
   v:groupContext="shape"
   transform="translate(12,-24.6)">
								<title
   id="title451">Sheet.92</title>
								<path
   d="M 0,200.5 H 1.46 L 2.23,199.04 3,200.5 h 1.37 l -1.28,-2.32 1.2,-2.14 H 2.91 l -0.68,1.37 -0.77,-1.37 H 0.09 l 1.28,2.14 z"
   class="st12"
   id="path453" />
							</g>
							<g
   id="shape93-169"
   v:mID="93"
   v:groupContext="shape"
   transform="translate(17.0571,-24.6)">
								<title
   id="title456">Sheet.93</title>
								<rect
   x="0"
   y="199.468"
   width="1.2"
   height="1.0285701"
   class="st12"
   id="rect458" />
							</g>
							<g
   id="shape94-171"
   v:mID="94"
   v:groupContext="shape"
   transform="translate(19.2,-24.6)">
								<title
   id="title461">Sheet.94</title>
								<path
   d="m 1.37,200.5 0.77,-1.46 0.77,1.46 H 4.29 L 2.91,198.18 4.2,196.04 H 2.91 l -0.77,1.37 -0.77,-1.37 H 0 L 1.29,198.18 0,200.5 Z"
   class="st12"
   id="path463" />
							</g>
							<g
   id="shape95-173"
   v:mID="95"
   v:groupContext="shape"
   transform="translate(23.9143,-24.6)">
								<title
   id="title466">Sheet.95</title>
								<rect
   x="0"
   y="199.468"
   width="1.2"
   height="1.0285701"
   class="st12"
   id="rect468" />
							</g>
							<g
   id="shape96-175"
   v:mID="96"
   v:groupContext="shape"
   transform="translate(25.8,-24.6)">
								<title
   id="title471">Sheet.96</title>
								<path
   d="M 1.37,200.5 2.14,199.04 3,200.5 H 4.29 L 3,198.18 4.2,196.04 H 2.91 l -0.77,1.37 -0.77,-1.37 H 0.09 l 1.2,2.14 L 0,200.5 Z"
   class="st12"
   id="path473" />
							</g>
							<g
   id="shape97-177"
   v:mID="97"
   v:groupContext="shape"
   transform="translate(30.5143,-24.6)">
								<title
   id="title476">Sheet.97</title>
								<rect
   x="0"
   y="199.468"
   width="1.2"
   height="1.0285701"
   class="st12"
   id="rect478" />
							</g>
							<g
   id="shape98-179"
   v:mID="98"
   v:groupContext="shape"
   transform="translate(12,-13.4571)">
								<title
   id="title481">Sheet.98</title>
								<path
   d="M 4.29,196.04 H 2.91 l -0.68,1.37 -0.77,-1.37 H 0.09 L 1.37,198.18 0,200.5 H 1.46 L 2.23,199.04 3,200.5 h 1.37 l -1.28,-2.32 z"
   class="st12"
   id="path483" />
							</g>
							<g
   id="shape99-181"
   v:mID="99"
   v:groupContext="shape"
   transform="translate(17.0571,-13.5429)">
								<title
   id="title486">Sheet.99</title>
								<rect
   x="0"
   y="199.468"
   width="1.2"
   height="1.0285701"
   class="st12"
   id="rect488" />
							</g>
							<g
   id="shape100-183"
   v:mID="100"
   v:groupContext="shape"
   transform="translate(19.2,-13.4571)">
								<title
   id="title491">Sheet.100</title>
								<path
   d="M 4.2,196.04 H 2.91 l -0.77,1.37 -0.77,-1.37 H 0 L 1.29,198.18 0,200.5 h 1.37 l 0.77,-1.46 0.77,1.46 h 1.38 l -1.38,-2.32 z"
   class="st12"
   id="path493" />
							</g>
							<g
   id="shape101-185"
   v:mID="101"
   v:groupContext="shape"
   transform="translate(23.9143,-13.5429)">
								<title
   id="title496">Sheet.101</title>
								<rect
   x="0"
   y="199.468"
   width="1.2"
   height="1.0285701"
   class="st12"
   id="rect498" />
							</g>
							<g
   id="shape102-187"
   v:mID="102"
   v:groupContext="shape"
   transform="translate(25.8,-13.4571)">
								<title
   id="title501">Sheet.102</title>
								<path
   d="M 4.2,196.04 H 2.91 l -0.77,1.37 -0.77,-1.37 H 0.09 l 1.2,2.14 L 0,200.5 H 1.37 L 2.14,199.04 3,200.5 H 4.29 L 3,198.18 Z"
   class="st12"
   id="path503" />
							</g>
							<g
   id="shape103-189"
   v:mID="103"
   v:groupContext="shape"
   transform="translate(30.5143,-13.5429)">
								<title
   id="title506">Sheet.103</title>
								<rect
   x="0"
   y="199.468"
   width="1.2"
   height="1.0285701"
   class="st12"
   id="rect508" />
							</g>
							<g
   id="shape104-191"
   v:mID="104"
   v:groupContext="shape"
   transform="translate(12,-2.57143)">
								<title
   id="title511">Sheet.104</title>
								<path
   d="M 4.29,196.13 H 2.91 l -0.68,1.28 -0.77,-1.28 H 0.09 L 1.37,198.18 0,200.5 H 1.46 L 2.23,199.04 3,200.5 h 1.37 l -1.28,-2.23 z"
   class="st12"
   id="path513" />
							</g>
							<g
   id="shape105-193"
   v:mID="105"
   v:groupContext="shape"
   transform="translate(17.0571,-2.57143)">
								<title
   id="title516">Sheet.105</title>
								<rect
   x="0"
   y="199.468"
   width="1.2"
   height="1.0285701"
   class="st12"
   id="rect518" />
							</g>
							<g
   id="shape106-195"
   v:mID="106"
   v:groupContext="shape"
   transform="translate(19.2,-2.57143)">
								<title
   id="title521">Sheet.106</title>
								<path
   d="M 4.2,196.13 H 2.91 l -0.77,1.28 -0.77,-1.28 H 0 L 1.29,198.18 0,200.5 h 1.37 l 0.77,-1.46 0.77,1.46 h 1.38 l -1.38,-2.23 z"
   class="st12"
   id="path523" />
							</g>
							<g
   id="shape107-197"
   v:mID="107"
   v:groupContext="shape"
   transform="translate(23.9143,-2.57143)">
								<title
   id="title526">Sheet.107</title>
								<rect
   x="0"
   y="199.468"
   width="1.2"
   height="1.0285701"
   class="st12"
   id="rect528" />
							</g>
							<g
   id="shape108-199"
   v:mID="108"
   v:groupContext="shape"
   transform="translate(25.8,-2.57143)">
								<title
   id="title531">Sheet.108</title>
								<path
   d="M 4.2,196.13 H 2.91 l -0.77,1.28 -0.77,-1.28 H 0.09 l 1.2,2.05 L 0,200.5 H 1.37 L 2.14,199.04 3,200.5 H 4.29 L 3,198.27 Z"
   class="st12"
   id="path533" />
							</g>
							<g
   id="shape109-201"
   v:mID="109"
   v:groupContext="shape"
   transform="translate(30.5143,-2.57143)">
								<title
   id="title536">Sheet.109</title>
								<rect
   x="0"
   y="199.468"
   width="1.2"
   height="1.0285701"
   class="st12"
   id="rect538" />
							</g>
						</g>
					</g>
				</g><g
     id="group111-204"
     transform="translate(426.82319,-45.461607)"
     v:mID="111"
     v:groupContext="group">
					<title
   id="title547">Security List</title>
					<g
   id="group112-205"
   v:mID="112"
   v:groupContext="group">
						<title
   id="title549">Sheet.112</title>
						<g
   id="group113-206"
   v:mID="113"
   v:groupContext="group">
							<title
   id="title551">Sheet.113</title>
							<g
   id="shape114-207"
   v:mID="114"
   v:groupContext="shape"
   transform="translate(0.42654,-0.42654)">
								<title
   id="title553">Sheet.114</title>
								<path
   d="M 13.05,200.33 C 6.4,197.85 3.24,193.59 1.71,190.35 0,186.68 0,183.61 0,183.44 v -12.29 l 13.39,-5.71 13.31,5.71 v 12.37 c 0,0.51 -0.17,12.11 -12.88,16.81 l -0.34,0.17 z"
   class="st13"
   id="path555" />
							</g>
							<g
   id="shape115-209"
   v:mID="115"
   v:groupContext="shape">
								<title
   id="title558">Sheet.115</title>
								<path
   d="m 13.82,165.44 12.88,5.54 v 12.11 c 0,0.52 -0.17,11.78 -12.62,16.38 l -0.26,0.09 -0.17,-0.09 C 7.08,197.08 4.01,192.9 2.56,189.75 0.94,186.25 0.85,183.18 0.85,183.09 v -12.11 z m 0,-0.94 -0.34,0.17 -12.97,5.54 -0.51,0.17 v 0.6 12.11 c 0,0.17 0,3.33 1.79,7.08 1.54,3.25 4.78,7.68 11.6,10.16 l 0.26,0.08 0.26,0.09 0.25,-0.09 0.26,-0.08 c 13.05,-4.78 13.22,-16.72 13.22,-17.24 v -12.11 -0.6 l -0.51,-0.25 -12.97,-5.46 z"
   class="st13"
   id="path560" />
							</g>
						</g>
						<g
   id="group116-211"
   transform="translate(0.85308,-0.938388)"
   v:mID="116"
   v:groupContext="group">
							<title
   id="title564">Sheet.116</title>
							<g
   id="shape117-212"
   v:mID="117"
   v:groupContext="shape"
   transform="translate(1.27962,-1.36493)">
								<title
   id="title566">Sheet.117</title>
								<path
   d="m 0,174.14 v 11.26 c 0,0.08 0,2.9 1.54,6.14 1.96,4.18 5.37,7.17 10.15,8.96 11.43,-4.35 11.6,-14.68 11.6,-15.1 v -11.26 l -11.6,-5.04 z m 11.6,16.8 H 3.84 v -1.28 h 7.76 z m 0,-5.8 H 3.84 v -1.28 h 7.76 z m 0,-6.23 H 3.84 v -1.28 h 7.76 z m 3.5,-1.28 1.02,1.03 2.56,-2.56 0.86,0.85 -3.42,3.41 -1.87,-1.87 z m 3.92,8.11 -0.85,0.85 -1.28,-1.28 -1.28,1.28 -0.85,-0.85 1.28,-1.28 -1.28,-1.28 0.85,-0.85 1.28,1.28 1.28,-1.28 0.85,0.85 -1.28,1.28 z m -3.92,3.92 1.02,1.03 2.56,-2.56 0.86,0.85 -3.42,3.41 -1.87,-1.87 z"
   class="st14"
   id="path568" />
							</g>
							<g
   id="shape118-214"
   v:mID="118"
   v:groupContext="shape">
								<title
   id="title571">Sheet.118</title>
								<path
   d="M 12.97,166.37 0,171.92 v 12.11 c 0,0.09 0,3.16 1.71,6.66 1.45,3.15 4.6,7.33 11.09,9.72 l 0.25,0.09 0.26,-0.09 c 12.45,-4.6 12.62,-15.95 12.62,-16.38 v -12.11 z m 11.6,17.66 c 0,0.43 -0.17,10.75 -11.6,15.1 -4.78,-1.79 -8.19,-4.78 -10.15,-8.96 -1.54,-3.32 -1.54,-6.05 -1.54,-6.14 v -11.26 l 11.69,-5.03 11.6,5.03 z"
   class="st15"
   id="path573" />
							</g>
							<g
   id="shape119-216"
   v:mID="119"
   v:groupContext="shape"
   transform="translate(5.11848,-22.9479)">
								<title
   id="title576">Sheet.119</title>
								<rect
   x="0"
   y="199.217"
   width="7.7630301"
   height="1.2796201"
   class="st15"
   id="rect578" />
							</g>
							<g
   id="shape120-218"
   v:mID="120"
   v:groupContext="shape"
   transform="translate(15.4408,-21.4123)">
								<title
   id="title581">Sheet.120</title>
								<path
   d="M 5.37,197.08 4.44,196.23 1.96,198.71 0.94,197.68 0,198.62 1.96,200.5 Z"
   class="st15"
   id="path583" />
							</g>
							<g
   id="shape121-220"
   v:mID="121"
   v:groupContext="shape"
   transform="translate(5.11848,-16.7204)">
								<title
   id="title586">Sheet.121</title>
								<rect
   x="0"
   y="199.217"
   width="7.7630301"
   height="1.2796201"
   class="st15"
   id="rect588" />
							</g>
							<g
   id="shape122-222"
   v:mID="122"
   v:groupContext="shape"
   transform="translate(15.9526,-15.1848)">
								<title
   id="title591">Sheet.122</title>
								<path
   d="M 3.5,196.06 2.22,197.43 0.85,196.06 0,197 1.28,198.28 0,199.56 0.85,200.5 2.22,199.22 3.5,200.5 4.35,199.56 3.07,198.28 4.35,197 Z"
   class="st15"
   id="path593" />
							</g>
							<g
   id="shape123-224"
   v:mID="123"
   v:groupContext="shape"
   transform="translate(5.11848,-10.9194)">
								<title
   id="title596">Sheet.123</title>
								<rect
   x="0"
   y="199.217"
   width="7.7630301"
   height="1.2796201"
   class="st15"
   id="rect598" />
							</g>
							<g
   id="shape124-226"
   v:mID="124"
   v:groupContext="shape"
   transform="translate(15.4408,-9.38388)">
								<title
   id="title601">Sheet.124</title>
								<path
   d="M 5.37,197.08 4.44,196.23 1.96,198.71 0.94,197.68 0,198.62 1.96,200.5 Z"
   class="st15"
   id="path603" />
							</g>
						</g>
					</g>
				</g><g
     id="shape125-228"
     v:mID="125"
     v:groupContext="shape"
     transform="translate(411.39309,-34.500107)">
					<title
   id="title609">Sheet.125</title>
					<desc
   id="desc611">Security List</desc>
					<v:textBlock
   v:margins="rect(4,4,4,4)" />
					<v:textRect
   cx="29.25"
   cy="194.035"
   width="58.5"
   height="12.9231" />
					<rect
   x="0"
   y="187.57401"
   width="58.5"
   height="12.9231"
   class="st8"
   id="rect613" />
					<text
   x="7.23"
   y="196.44"
   class="st9"
   v:langID="1033"
   id="text615"><v:paragraph
   v:horizAlign="1"
   v:bulletSize="0.166667" /><v:tabList />Security List</text>				</g><path
     d="m 201.24639,74.77429 h 102.79"
     class="st19"
     id="path626" /><rect
     v:rectContext="textBkgnd"
     x="229.90619"
     y="69.971298"
     width="57.8004"
     height="9.5998497"
     class="st21"
     id="rect628" /><text
     x="229.90639"
     y="77.174286"
     class="st22"
     v:langID="1033"
     id="text630"><v:paragraph
   v:horizAlign="1" /><v:tabList />Remote Peering</text><rect
     v:rectContext="foreign"
     x="207.28214"
     y="65.799225"
     width="23.6693"
     height="17.971701"
     class="st8"
     id="rect635" /><rect
     v:rectContext="foreign"
     x="207.28214"
     y="65.799225"
     width="23.6693"
     height="17.971701"
     class="st8"
     id="rect724" /><path
     d="m 306.10911,74.21369 c 0,-3.97 3.23,-7.19 7.2,-7.19 3.99,0 7.21,3.22 7.21,7.19 0,3.97 -3.22,7.19 -7.21,7.19 -3.97,0 -7.2,-3.22 -7.2,-7.19 z"
     class="st23"
     id="path732" /><rect
     x="296.9024"
     y="80.521286"
     width="34.130501"
     height="20"
     class="st8"
     id="rect739" /><text
     x="302.79239"
     y="92.924286"
     class="st22"
     v:langID="1033"
     id="text741"><v:paragraph
   v:horizAlign="1" /><v:tabList />RPC-2</text><path
     d="m 185.26339,74.21329 c 0,-3.97 3.23,-7.19 7.2,-7.19 3.99,0 7.21,3.22 7.21,7.19 0,3.97 -3.22,7.19 -7.21,7.19 -3.97,0 -7.2,-3.22 -7.2,-7.19 z"
     class="st23"
     id="path747" /><rect
     x="175.40239"
     y="80.521286"
     width="34.130501"
     height="20"
     class="st8"
     id="rect754" /><text
     x="181.8924"
     y="92.924286"
     class="st22"
     v:langID="1033"
     id="text756"><v:paragraph
   v:horizAlign="1" /><v:tabList />RPC-1</text></g>
</svg>
